HIERARCHY
ROOT SpineBase
{
  OFFSET 0.000000 0.000000 0.000000
  CHANNELS 6 Xposition Yposition Zposition Zrotation Xrotation Yrotation
  JOINT SpineMid
  {
    OFFSET 0.000000 29.778282 0.000000
    CHANNELS 3 Zrotation Xrotation Yrotation
    JOINT SpineShoulder
    {
      OFFSET 0.060333 21.964227 -0.708737
      CHANNELS 3 Zrotation Xrotation Yrotation
      JOINT Neck
      {
        OFFSET 0.073249 7.239151 -0.568191
        CHANNELS 3 Zrotation Xrotation Yrotation
        JOINT Head
        {
          OFFSET -3.302016 14.335863 0.801936
          CHANNELS 3 Zrotation Xrotation Yrotation
          End Site
          {
            OFFSET 0 0 0
          }
        }
      }
      JOINT ShoulderLeft
      {
        OFFSET -15.374787 -4.339498 6.692079
        CHANNELS 3 Zrotation Xrotation Yrotation
        JOINT ElbowLeft
        {
          OFFSET -4.722439 -26.164432 3.341459
          CHANNELS 3 Zrotation Xrotation Yrotation
          JOINT WristLeft
          {
            OFFSET -2.376195 -22.724299 -3.078870
            CHANNELS 3 Zrotation Xrotation Yrotation
            JOINT HandLeft
            {
              OFFSET -0.414328 -5.068974 -0.755902
              CHANNELS 3 Zrotation Xrotation Yrotation
              JOINT HandTipLeft
              {
                OFFSET 0.061704 -5.925857 -0.914778
                CHANNELS 3 Zrotation Xrotation Yrotation
                End Site
                {
                  OFFSET 0 0 0
                }
              }
              JOINT ThumbLeft
              {
                OFFSET -2.407941 0.390207 -2.819228
                CHANNELS 3 Zrotation Xrotation Yrotation
                End Site
                {
                  OFFSET 0 0 0
                }
              }
            }
          }
        }
      }
      JOINT ShoulderRight
      {
        OFFSET 14.299377 -5.077787 -11.084766
        CHANNELS 3 Zrotation Xrotation Yrotation
        JOINT ElbowRight
        {
          OFFSET 13.829700 -3.669813 -17.776114
          CHANNELS 3 Zrotation Xrotation Yrotation
          JOINT WristRight
          {
            OFFSET -3.023398 26.347543 -6.392872
            CHANNELS 3 Zrotation Xrotation Yrotation
            JOINT HandRight
            {
              OFFSET -2.555584 5.294917 -1.835078
              CHANNELS 3 Zrotation Xrotation Yrotation
              JOINT HandTipRight
              {
                OFFSET -4.048511 5.415241 -3.634620
                CHANNELS 3 Zrotation Xrotation Yrotation
                End Site
                {
                  OFFSET 0 0 0
                }
              }
              JOINT ThumbRight
              {
                OFFSET -4.333032 -3.429532 -1.249763
                CHANNELS 3 Zrotation Xrotation Yrotation
                End Site
                {
                  OFFSET 0 0 0
                }
              }
            }
          }
        }
      }
    }
  }
  JOINT HipLeft
  {
    OFFSET -6.372748 -0.273309 0.404895
    CHANNELS 3 Zrotation Xrotation Yrotation
    JOINT KneeLeft
    {
      OFFSET 3.591032 -30.603374 5.159237
      CHANNELS 3 Zrotation Xrotation Yrotation
      JOINT AnkleLeft
      {
        OFFSET 4.807964 -29.865099 7.047566
        CHANNELS 3 Zrotation Xrotation Yrotation
        JOINT FootLeft
        {
          OFFSET -3.901236 -5.884119 -10.282791
          CHANNELS 3 Zrotation Xrotation Yrotation
          End Site
          {
            OFFSET 0 0 0
          }
        }
      }
    }
  }
  JOINT HipRight
  {
    OFFSET 6.870639 1.028345 -7.644827
    CHANNELS 3 Zrotation Xrotation Yrotation
    JOINT KneeRight
    {
      OFFSET 6.228125 -31.426057 2.345739
      CHANNELS 3 Zrotation Xrotation Yrotation
      JOINT AnkleRight
      {
        OFFSET 4.839008 -32.931910 5.245757
        CHANNELS 3 Zrotation Xrotation Yrotation
        JOINT FootRight
        {
          OFFSET -5.335491 -4.761808 -12.065913
          CHANNELS 3 Zrotation Xrotation Yrotation
          End Site
          {
            OFFSET 0 0 0
          }
        }
      }
    }
  }
}
MOTION
Frames: 9
Frame Time: 0.033333
-25.637484 70.012297 389.146943 0.764114 -1.153861 38.806925 0.448795 0.264721 -38.772956 0.426827 0.127168 0.076904 -2.699682 -7.458665 -1.971970 0.000000 0.000000 0.000000 -1.721672 -4.331319 0.713590 3.396881 -2.177715 -0.603492 -7.551480 -3.922249 1.576773 3.003297 3.069109 -1.658347 0.000000 0.000000 0.000000 0.000000 0.000000 0.000000 -11.424740 -10.388091 30.861667 31.198359 0.925383 -28.452823 -26.600655 12.469917 -0.267508 -8.775739 1.514306 -6.899513 0.000000 0.000000 0.000000 0.000000 0.000000 0.000000 0.644283 3.055765 -38.738569 0.647054 -1.631818 -0.072970 0.862762 -4.130733 1.355403 0.000000 0.000000 0.000000 -0.872192 0.013595 -39.117481 -0.085339 1.689310 0.330117 -0.862120 -0.985445 3.324845 0.000000 0.000000 0.000000
-25.713219 69.790002 389.232354 0.773151 -0.833751 39.373076 0.500176 0.342434 -39.343000 0.439010 0.004197 0.078818 -3.056261 -7.198198 -1.847417 0.000000 0.000000 0.000000 -1.859233 -4.811227 0.722110 3.333170 -2.265486 -0.569509 -7.006666 -4.465612 1.514045 0.135175 3.541778 -0.929335 0.000000 0.000000 0.000000 0.000000 0.000000 0.000000 -13.401594 -15.357407 39.902482 43.574945 -9.815949 -33.667801 -31.027883 12.346474 -2.218129 -7.010261 -0.457325 -4.573731 0.000000 0.000000 0.000000 0.000000 0.000000 0.000000 0.391681 2.848296 -39.316150 1.572292 -1.677690 0.156847 -1.487498 -1.994417 2.351660 0.000000 0.000000 0.000000 -0.969622 -0.220667 -39.667931 -0.172087 1.618471 0.310780 -1.097793 -1.137452 4.102835 0.000000 0.000000 0.000000
-25.750643 69.406764 389.367547 0.658283 -0.361145 39.647330 0.570082 0.406036 -39.625546 0.449276 -0.098013 0.075035 -2.082011 -5.383315 -1.292581 0.000000 0.000000 0.000000 -1.719820 -5.023856 0.688658 2.945009 -3.008251 -0.398157 -6.550642 -2.677389 1.353910 -0.723957 2.347229 -0.642235 0.000000 0.000000 0.000000 0.000000 0.000000 0.000000 -14.153852 -19.677600 51.176300 51.483513 -24.886094 -38.044085 -35.787511 14.214806 -3.043206 -7.279228 -1.908171 -4.068264 0.000000 0.000000 0.000000 0.000000 0.000000 0.000000 0.064301 2.416896 -39.612577 1.629998 -1.360335 0.208017 -5.648430 2.920810 5.894300 0.000000 0.000000 0.000000 -0.970207 -0.531803 -39.898948 -0.256716 1.388526 0.259495 -1.411960 -1.313927 5.108597 0.000000 0.000000 0.000000
-25.754832 68.909554 389.550955 0.476879 0.265724 39.996449 0.628477 0.418198 -39.982835 0.431787 -0.190721 0.066042 -0.001791 -2.123165 -0.426361 0.000000 0.000000 0.000000 -1.444478 -5.108167 0.629979 2.770625 -4.035408 -0.217983 -5.072453 -1.283098 0.990057 -2.744099 0.005608 -0.221443 0.000000 0.000000 0.000000 0.000000 0.000000 0.000000 -13.628710 -21.495058 63.154504 53.762852 -40.442031 -41.448815 -42.232247 18.319018 -3.169034 -5.342992 -3.730857 -2.644433 0.000000 0.000000 0.000000 0.000000 0.000000 0.000000 -0.307420 1.912907 -39.987706 1.775358 -1.239148 0.251898 -6.456208 4.215739 6.265805 0.000000 0.000000 0.000000 -0.847150 -0.952679 -40.166173 -0.443229 1.007296 0.170689 -1.818390 -1.549965 6.419468 0.000000 0.000000 0.000000
-25.737994 68.436948 389.751077 0.260016 1.086168 40.888730 0.685676 0.356970 -40.879639 0.415301 -0.245576 0.055624 2.989007 2.175331 0.540460 0.000000 0.000000 0.000000 -1.288214 -5.857052 0.637795 3.100640 -3.651236 -0.311677 -4.186125 -2.189246 0.859563 -4.539219 1.611457 0.281716 0.000000 0.000000 0.000000 0.000000 0.000000 0.000000 -12.886947 -20.485827 72.670103 52.316066 -52.608515 -43.311546 -43.730509 21.519209 -2.657136 -8.331980 -2.303703 -2.408518 0.000000 0.000000 0.000000 0.000000 0.000000 0.000000 -0.751955 1.388566 -40.909810 1.218251 -1.643114 0.029928 -6.742244 3.568354 8.798166 0.000000 0.000000 0.000000 -0.791994 -1.564043 -40.964661 0.157121 0.814815 0.227306 -3.134671 -2.007952 7.747353 0.000000 0.000000 0.000000
-25.695664 67.951881 389.947876 0.146527 2.143135 42.682622 0.968303 0.172548 -42.660791 0.495906 -0.170797 0.068020 5.750815 6.612864 1.409206 0.000000 0.000000 0.000000 -1.575292 -7.154582 0.621320 3.739747 -2.614654 -0.553206 -2.839925 -1.439300 0.521947 -6.402958 2.123931 0.817648 0.000000 0.000000 0.000000 0.000000 0.000000 0.000000 -13.032729 -17.700650 79.910914 49.616127 -63.725218 -42.645537 -42.917268 26.923555 -1.476699 -10.928171 -4.127496 -3.153872 0.000000 0.000000 0.000000 0.000000 0.000000 0.000000 -1.370880 0.963222 -42.734634 1.516142 -1.920340 0.055425 -7.837948 3.557749 10.521291 0.000000 0.000000 0.000000 -1.073723 -2.486473 -42.692494 -0.092729 0.588176 0.176382 -3.722545 -2.243282 9.257968 0.000000 0.000000 0.000000
-25.634017 67.816009 389.922319 0.899845 1.807614 44.804604 1.189879 0.116948 -44.769077 0.467619 0.003766 0.104687 4.273790 8.662728 1.718942 0.000000 0.000000 0.000000 -2.469067 -7.128037 0.531385 5.607791 -4.349513 -0.582917 -1.787191 -4.892641 0.699341 -4.433157 3.700697 0.005366 0.000000 0.000000 0.000000 0.000000 0.000000 0.000000 -13.794560 -20.337220 83.599719 52.521492 -69.274598 -42.374308 -40.985019 32.580132 -0.523395 -13.060361 -4.093063 -2.806174 0.000000 0.000000 0.000000 0.000000 0.000000 0.000000 -1.973262 2.078340 -44.938873 1.969660 -1.886514 0.142450 -2.250077 -4.752161 7.423664 0.000000 0.000000 0.000000 -1.370858 -1.971612 -44.829319 -0.268767 0.637726 0.186179 -4.116342 -2.735244 10.774529 0.000000 0.000000 0.000000
-25.709819 67.821910 389.893693 1.063353 1.792945 46.448062 0.825145 -0.043349 -46.413061 0.443158 0.253231 0.096402 4.898387 5.297183 1.062286 0.000000 0.000000 0.000000 -2.442991 -7.009435 0.535867 6.356921 -5.591801 -0.491764 1.206726 -6.209660 0.317358 -7.009389 5.483770 0.580531 0.000000 0.000000 0.000000 0.000000 0.000000 0.000000 -13.662527 -21.083185 85.047249 58.076352 -73.669843 -36.751300 -46.372598 48.046420 3.069571 -20.150070 2.210922 -8.708126 0.000000 0.000000 0.000000 0.000000 0.000000 0.000000 -2.026632 2.246536 -46.584754 2.544064 -1.287301 0.389504 0.387251 -10.403762 5.522039 0.000000 0.000000 0.000000 -1.432024 -2.122732 -46.478918 -0.498199 0.630180 0.182913 -4.275568 -2.803996 11.329612 0.000000 0.000000 0.000000
-25.762047 67.831108 389.888537 1.244984 1.903475 48.303543 0.798895 -0.117560 -48.265221 0.379020 0.279432 0.098018 5.640814 5.546179 1.042486 0.000000 0.000000 0.000000 -2.579285 -7.095614 0.521081 6.964182 -6.309124 -0.453048 2.671860 -7.456184 0.244841 -7.092795 5.586051 0.431474 0.000000 0.000000 0.000000 0.000000 0.000000 0.000000 -13.723839 -21.881547 85.929760 70.928194 -76.392407 -24.332955 -65.053074 67.800859 16.616472 -26.450809 6.380249 -30.830090 0.000000 0.000000 0.000000 0.000000 0.000000 0.000000 -2.106337 2.518756 -48.442370 2.627766 -1.260485 0.418809 -0.709781 -12.427485 9.308489 0.000000 0.000000 0.000000 -1.650392 -2.274851 -48.346089 -0.634091 0.612447 0.186284 -4.479271 -2.840831 11.878022 0.000000 0.000000 0.000000
